PathFileType	4	(X/Y/Z)	..\data\2014031\dynamic\2014031_C5_05.trc
DataRate	CameraRate	NumFrames	NumMarkers	Units	OrigDataRate	OrigDataStartFrame	OrigNumFrames
100.000000	100.000000	4	52	mm	100.000000	57	153
Frame#	Time	L_IAS			L_IPS			R_IPS			R_IAS			L_FTC			L_FLE			L_FME			L_FAX			L_TTC			L_FAL			L_TAM			L_FCC			L_FM1			L_FM2			L_FM5			R_FTC			R_FLE			R_FME			R_FAX			R_TTC			R_FAL			R_TAM			R_FCC			R_FM1			R_FM2			R_FM5			CV7			TV10			SXS			SJN			L_SIA			L_SRS			L_SAA			L_SAE			L_HLE			L_HME			L_UOA			L_RSP			L_UHE			L_HM2			L_HM5			R_SIA			R_SRS			R_SAA			R_SAE			R_HLE			R_HME			R_UOA			R_RSP			R_UHE			R_HM2			R_HM5			
		X1	Y1	Z1	X2	Y2	Z2	X3	Y3	Z3	X4	Y4	Z4	X5	Y5	Z5	X6	Y6	Z6	X7	Y7	Z7	X8	Y8	Z8	X9	Y9	Z9	X10	Y10	Z10	X11	Y11	Z11	X12	Y12	Z12	X13	Y13	Z13	X14	Y14	Z14	X15	Y15	Z15	X16	Y16	Z16	X17	Y17	Z17	X18	Y18	Z18	X19	Y19	Z19	X20	Y20	Z20	X21	Y21	Z21	X22	Y22	Z22	X23	Y23	Z23	X24	Y24	Z24	X25	Y25	Z25	X26	Y26	Z26	X27	Y27	Z27	X28	Y28	Z28	X29	Y29	Z29	X30	Y30	Z30	X31	Y31	Z31	X32	Y32	Z32	X33	Y33	Z33	X34	Y34	Z34	X35	Y35	Z35	X36	Y36	Z36	X37	Y37	Z37	X38	Y38	Z38	X39	Y39	Z39	X40	Y40	Z40	X41	Y41	Z41	X42	Y42	Z42	X43	Y43	Z43	X44	Y44	Z44	X45	Y45	Z45	X46	Y46	Z46	X47	Y47	Z47	X48	Y48	Z48	X49	Y49	Z49	X50	Y50	Z50	X51	Y51	Z51	X52	Y52	Z52	

58	0.5700000000000001	602.2474975585939	916.8743896484377	-346.1507568359376	413.4014587402345	949.123718261719	-264.4722900390626	423.7305603027345	938.8298339843752	-160.5017395019532	618.5891113281251	922.5305786132815	-119.4350662231446	481.3298950195314	850.3721313476565	-410.2152404785157	377.7195434570313	453.684539794922	-378.1404418945313	392.7907714843751	442.9521484375001	-250.4729614257813	336.5652770996094	406.3496704101564	-377.2001953125001	396.2536010742189	369.5178222656251	-326.2210083007813	111.7290573120117	146.3734588623047	-330.1408081054688	148.5618438720703	142.0664672851563	-244.2722473144532	54.94764328002931	135.2695007324219	-277.3492126464844	192.533187866211	21.35600471496582	-237.9771728515626	201.0199127197266	31.72094726562501	-295.3947143554688	156.9223785400391	29.87797927856446	-345.0168457031251	557.1010131835939	832.6168212890627	-41.06432723999024	727.3966064453126	468.9767150878907	-91.00318145751955	728.8206787109376	459.0202941894532	-218.9995880126954	739.8917846679689	409.892791748047	-90.27108764648439	795.8044433593752	424.523895263672	-149.8803100585938	773.7927856445315	68.66426849365236	-124.5151062011719	800.6120605468752	95.18466186523439	-209.0340423583985	741.3046264648439	16.64923095703125	-176.5348663330078	929.332702636719	40.56305313110352	-196.467758178711	932.2081298828127	53.1946487426758	-137.8245239257813	893.2068481445315	24.71197319030762	-92.85852050781251	490.099578857422	1466.852905273438	-194.3314056396485	403.0856933593751	1192.815795898438	-221.7041015625001	625.7545776367189	1182.04931640625	-223.7616729736329	603.2290649414064	1376.386474609375	-210.3545684814454	405.7938842773439	1226.7607421875	-335.1639099121094	445.046600341797	1381.654541015625	-341.6696777343751	496.0384826660157	1382.293212890625	-404.0832824707032	539.7968139648439	1385.041015625	-404.5522460937501	621.4451904296876	1077.526611328125	-509.7416992187501	597.7905273437501	1027.584228515625	-436.8469543457032	611.1823730468751	1020.304931640625	-492.1798095703126	857.5867919921877	1073.384765625	-380.7213745117188	867.7307128906252	1031.545532226563	-449.5842285156251	942.1556396484377	1095.167602539063	-377.5023193359376	943.0195922851565	1012.870361328125	-434.6976928710939	394.3714904785157	1217.993408203125	-124.8333587646485	453.8054199218751	1369.809326171875	-84.55464172363283	506.2461853027345	1360.849365234375	-22.237699508667	549.2230834960939	1349.007446289063	-6.425027370452883	411.2897338867189	1038.374389648438	36.37606048583985	392.891571044922	1032.548706054688	-45.81930541992188	371.5420227050782	1027.768188476563	-6.78940010070801	434.094207763672	780.0828247070315	13.26314544677735	385.891082763672	791.2783203125002	76.65858459472658	412.0222778320314	685.4561767578126	9.621453285217287	343.5745849609376	717.7905273437501	77.6239700317383	
59	0.58	620.1091308593751	916.6767578125002	-344.1272583007813	430.7984008789064	949.106872558594	-264.5688171386719	441.0586547851564	940.1091308593752	-159.9866180419922	635.8240966796876	924.3779907226565	-118.1205444335938	500.2996215820314	848.9118652343752	-409.2485961914064	402.6983642578126	451.6356811523439	-378.8469543457032	420.1727905273439	438.803192138672	-251.6851501464844	360.7568664550782	405.8103027343751	-378.2138671875001	420.1189575195314	366.4426574707032	-328.4917297363282	126.0143737792969	155.929672241211	-330.4053649902344	164.0757751464844	148.4587707519532	-245.4305114746094	70.64337158203126	149.4301910400391	-276.2807006835938	195.9377746582032	24.33235168457032	-237.9734802246094	203.7274627685547	33.37455368041993	-295.4856872558594	160.1343536376953	34.63026809692384	-343.9115600585938	574.5154418945314	834.794860839844	-39.51243591308594	743.3315429687501	469.6100158691407	-91.51070404052736	744.3198242187501	460.4673461914064	-219.4008789062501	754.5991210937501	410.3724670410157	-90.93434143066408	810.2061767578127	423.6748352050782	-150.9745178222657	776.0841064453127	68.05092620849611	-125.3694152832032	802.9132080078127	93.42783355712892	-210.2730255126954	740.6525268554689	17.2763786315918	-176.6573333740235	930.7437744140627	33.13394927978516	-197.5288848876954	934.4692382812502	46.80381774902344	-138.4850463867188	893.8084716796877	20.84572792053223	-92.4960403442383	506.7802124023439	1467.548950195313	-192.2173767089844	420.208465576172	1193.365478515625	-220.4253082275391	643.0213623046876	1183.1259765625	-222.556381225586	620.0648803710939	1377.402954101563	-208.825668334961	422.7497863769532	1227.513671875	-333.7284851074219	461.5821228027345	1382.65966796875	-339.7286071777344	512.2710571289064	1383.443603515625	-402.1524963378907	555.5679931640626	1385.77001953125	-403.5277709960939	634.7479248046876	1078.250366210938	-509.3917541503907	611.4614868164064	1028.214721679688	-436.3566284179689	624.2916259765626	1020.955017089844	-491.9025878906251	871.3418579101565	1073.745727539063	-381.3359069824219	881.1575927734377	1031.637451171875	-450.0649719238282	955.8123779296877	1095.712646484375	-378.8385620117188	956.4744262695315	1013.159362792969	-435.611297607422	412.214569091797	1218.207153320313	-123.0194091796875	471.1941528320314	1370.311645507813	-82.45964813232423	524.0246582031251	1361.358642578125	-20.35699844360352	567.0811767578126	1349.497680664063	-4.77367925643921	430.1011352539064	1038.338012695313	37.83753204345704	411.2348937988282	1032.790161132813	-44.27285385131837	390.1087341308595	1027.858520507813	-5.106231689453126	452.8910522460939	780.3418579101565	13.09439086914063	405.6020507812501	791.1243896484377	77.34693908691408	428.9053649902345	685.9758300781251	7.951033592224123	362.1523437500001	718.3232421875001	77.83918762207033	
60	0.59	637.6266479492189	916.7758789062502	-342.1624450683594	447.9560852050782	949.3228759765627	-264.6754760742188	458.1232910156251	941.6997680664065	-159.5105895996094	652.7995605468751	926.4530029296877	-116.8365097045899	519.1868286132814	847.596374511719	-408.2949218750001	429.2835998535157	449.5003356933595	-379.4045410156251	449.0340270996095	434.6682434082032	-252.6654815673829	386.6987304687501	405.2455139160157	-379.0840454101563	445.575164794922	363.5844726562501	-330.4538879394532	142.4590759277344	165.827880859375	-330.4835510253907	181.626205444336	155.131820678711	-246.4195556640626	88.6765823364258	163.8183135986328	-275.0395507812501	201.5965576171876	28.10391235351563	-238.3365478515626	208.5391387939454	35.73750305175782	-295.9861450195313	165.4512023925782	40.5387077331543	-342.9992065429688	591.5258789062501	837.1551513671877	-38.04275131225587	758.3247070312501	470.233367919922	-92.01938629150392	758.6909179687501	461.7622680664064	-219.8218841552735	768.3217773437502	410.8440246582032	-91.58705902099611	823.6008300781252	422.8339233398439	-152.0769500732422	778.018981933594	67.7770233154297	-126.1639938354492	804.6983642578127	92.05494689941408	-211.4902801513672	740.0968627929689	17.97093772888184	-176.7269287109375	931.7754516601565	27.10977363586426	-198.5253906250001	936.3492431640627	41.72768783569337	-139.1070404052735	894.2751464843752	18.08590126037598	-92.06713867187501	523.4174804687501	1468.550659179688	-190.1681671142578	437.1681213378907	1194.25732421875	-219.1260833740235	660.0894775390626	1184.427368164063	-221.4466094970704	636.8010253906251	1378.67626953125	-207.3959350585938	439.4750366210939	1228.668823242188	-332.3239135742188	478.0353393554689	1384.022338867188	-337.8666687011719	528.4213256835939	1384.897827148438	-400.288055419922	571.3640747070314	1386.808227539063	-402.4616088867189	647.5420532226564	1079.07861328125	-508.9808349609376	624.4842529296876	1029.036010742188	-435.7830505371095	636.6644897460939	1021.775146484375	-491.5342712402345	884.6912231445315	1073.098022460938	-382.0405883789063	893.9226074218752	1030.757446289063	-450.6931457519532	969.2297363281252	1094.658203125	-380.1818847656251	969.1489868164065	1011.995239257813	-436.7306518554689	429.9804992675782	1218.742797851563	-121.1340637207032	488.5224609375001	1371.1845703125	-80.41839599609376	541.7651977539064	1362.235961914063	-18.5644702911377	584.9117431640626	1350.314208984375	-3.237134218215943	449.3104858398439	1038.431030273438	39.34819412231446	429.7994995117189	1033.150024414063	-42.65390396118165	409.0322875976564	1028.007446289063	-3.319605112075807	472.7655639648439	780.8081665039065	12.9011459350586	426.3469848632814	791.018737792969	77.96444702148439	447.3242492675782	686.6513671875001	6.411709308624269	382.0596618652344	718.7265625000001	78.02777099609376	
61	0.6	654.7435302734376	917.210876464844	-340.3361816406251	464.8365783691407	949.766052246094	-264.7337341308594	474.8958435058595	943.5608520507815	-159.0516967773438	669.5032348632814	928.7146606445315	-115.6115646362305	537.8809204101564	846.4870605468752	-407.3521728515626	457.3187561035157	447.4123535156251	-379.7595825195313	479.0734252929689	430.7973937988282	-253.3314208984376	414.248748779297	404.7306518554689	-379.7401428222657	472.4935607910157	361.0874633789063	-331.9692687988282	161.0950469970703	175.8789367675782	-330.3892822265626	201.1845245361329	161.9967956542969	-247.2012329101563	108.9496765136719	178.0435333251953	-273.7023315429688	209.9894409179688	32.58836746215821	-239.1322784423829	215.9914093017579	38.83312988281251	-296.9504089355469	173.400619506836	47.50111770629884	-342.3896484375001	608.1369628906251	839.6588134765627	-36.68408203125001	772.2444458007815	470.7797241210939	-92.50791931152345	771.8377685546877	462.8335571289064	-220.2395629882813	780.9317016601565	411.2429504394532	-92.2055130004883	835.8941040039065	421.9619445800782	-153.1393432617188	779.681091308594	67.79502105712892	-126.886459350586	806.0940551757815	91.04994964599611	-212.6541748046876	739.7648315429689	18.67735099792481	-176.7659301757813	932.5501098632815	22.56072235107422	-199.4285736083985	937.9365234375002	37.98815917968751	-139.6742095947266	894.711853027344	16.37169647216797	-91.61827850341798	539.9895629882814	1469.843017578125	-188.2056121826172	453.9268798828126	1195.478515625	-217.8053588867188	676.9106445312501	1185.921508789063	-220.4659423828126	653.4083251953126	1380.177001953125	-206.0976257324219	455.894256591797	1230.210327148438	-330.9334716796876	494.3569641113282	1385.721557617188	-336.0934753417969	544.4353637695314	1386.639526367188	-398.5089111328126	587.1752929687501	1388.154663085938	-401.3333435058595	659.8441772460939	1080.010620117188	-508.5067138671876	636.8601074218751	1030.049194335938	-435.1267395019532	648.3291015625001	1022.768432617188	-491.0713195800782	897.624450683594	1071.4404296875	-382.8228759765626	906.016052246094	1028.911499023438	-451.455047607422	982.3889770507815	1092.031127929688	-381.5257568359376	981.0357666015627	1009.392578125	-438.0276794433595	447.5888671875001	1219.625366210938	-119.1823120117188	505.7706604003907	1372.420532226563	-78.44869232177736	559.4505004882814	1363.466430664063	-16.88533782958985	602.6980590820314	1351.431762695313	-1.843764901161194	468.9028930664064	1038.640502929688	40.89009857177735	448.5279235839845	1033.619262695313	-40.97410202026368	428.296356201172	1028.201171875	-1.44011664390564	493.654510498047	781.460632324219	12.68466854095459	448.0650634765626	790.9605712890627	78.50801849365236	467.2927551269532	687.4380493164064	5.04742193222046	403.2841796875001	718.9606933593751	78.20909118652345	
